#N canvas 265 715 450 300 10;
#X obj 12 71 drunk, f 18;
#X obj 12 52 tgl 15 0 empty empty empty 17 7 0 10 -262144 -1 -1 0 1
;
#X floatatom 82 52 5 0 0 0 - - -;
#X floatatom 117 52 5 0 0 0 - - -;
#X floatatom 12 94 5 0 0 0 - - -;
#X floatatom 47 51 5 0 0 0 - - -;
#X obj 154 73 drunk, f 18;
#X obj 154 54 tgl 15 0 empty empty empty 17 7 0 10 -262144 -1 -1 0
1;
#X floatatom 224 54 5 0 0 0 - - -;
#X floatatom 259 54 5 0 0 0 - - -;
#X floatatom 154 96 5 0 0 0 - - -;
#X floatatom 189 53 5 0 0 0 - - -;
#X obj 297 73 drunk, f 18;
#X obj 297 54 tgl 15 0 empty empty empty 17 7 0 10 -262144 -1 -1 0
1;
#X floatatom 367 54 5 0 0 0 - - -;
#X floatatom 402 54 5 0 0 0 - - -;
#X floatatom 297 96 5 0 0 0 - - -;
#X floatatom 332 53 5 0 0 0 - - -;
#X obj 12 222 outlet;
#X obj 154 222 outlet;
#X obj 296 226 outlet;
#X obj 12 9 inlet;
#X obj 237 8 inlet;
#X obj 276 8 inlet;
#X connect 0 0 4 0;
#X connect 1 0 0 0;
#X connect 2 0 0 2;
#X connect 3 0 0 3;
#X connect 4 0 18 0;
#X connect 5 0 0 1;
#X connect 6 0 10 0;
#X connect 7 0 6 0;
#X connect 8 0 6 2;
#X connect 9 0 6 3;
#X connect 10 0 19 0;
#X connect 11 0 6 1;
#X connect 12 0 16 0;
#X connect 13 0 12 0;
#X connect 14 0 12 2;
#X connect 15 0 12 3;
#X connect 16 0 20 0;
#X connect 17 0 12 1;
#X connect 21 0 1 0;
#X connect 21 0 7 0;
#X connect 21 0 13 0;
#X connect 22 0 2 0;
#X connect 22 0 8 0;
#X connect 22 0 14 0;
#X connect 23 0 3 0;
#X connect 23 0 9 0;
#X connect 23 0 15 0;
