#N canvas 374 132 456 300 10;
#X obj 10 14 inlet;
#X obj 10 230 else/drunkard;
#X obj 10 102 metro 33.3333, f 17;
#X obj 104 16 inlet;
#X obj 144 16 inlet;
#X obj 10 253 outlet;
#X obj 65 17 inlet;
#X connect 0 0 2 0;
#X connect 1 0 5 0;
#X connect 2 0 1 0;
#X connect 3 0 1 1;
#X connect 4 0 1 2;
#X connect 6 0 2 1;
