#N canvas 1378 113 499 495 10;
#X declare -path pdjs;
#X declare -lib Gem;
#X text 5 4 GEM-ini;
#X obj 56 3 declare -path pdjs;
#X floatatom 124 284 0 0 0 0 - - -;
#X obj 49 249 gemhead;
#X floatatom 112 388 0 0 0 0 - - -;
#X obj 34 167 gemhead 1;
#X obj 34 190 world_light;
#X text 242 406 load in a model file;
#X obj 33 85 cnv 15 220 70 empty empty empty 20 12 0 14 -195568 -66577
0;
#N canvas 0 22 454 304 gemwin 0;
#X obj 132 136 gemwin;
#X obj 67 89 outlet;
#X obj 67 10 inlet;
#X obj 67 41 route create;
#X msg 67 70 set destroy;
#X msg 182 68 set create;
#X msg 132 112 create \, 1;
#X msg 238 112 destroy;
#N canvas 87 154 247 179 Gem.init 0;
#X obj 59 26 loadbang;
#X msg 165 79 reset;
#X obj 118 113 outlet;
#X obj 59 45 t b b;
#X obj 167 38 tgl 15 0 empty empty empty 17 7 0 10 -262144 -1 -1 0
1;
#X msg 54 75 lighting 1;
#X connect 0 0 3 0;
#X connect 1 0 2 0;
#X connect 3 0 5 0;
#X connect 3 1 1 0;
#X connect 4 0 5 0;
#X connect 5 0 2 0;
#X restore 289 80 pd Gem.init;
#X connect 2 0 3 0;
#X connect 3 0 4 0;
#X connect 3 0 6 0;
#X connect 3 1 5 0;
#X connect 3 1 7 0;
#X connect 4 0 1 0;
#X connect 5 0 1 0;
#X connect 6 0 0 0;
#X connect 7 0 0 0;
#X connect 8 0 0 0;
#X restore 38 129 pd gemwin;
#X msg 38 105 create;
#X text 34 85 Create window and render;
#X obj 49 339 translate 0 0 0 1;
#X obj 124 308 / 100;
#X obj 67 28 declare -lib Gem;
#X obj 49 410 rotate 0 1 0 0;
#X obj 50 435 model ./SatDish.obj;
#X connect 2 0 13 0;
#X connect 3 0 12 0;
#X connect 4 0 15 1;
#X connect 5 0 6 0;
#X connect 9 0 10 0;
#X connect 10 0 9 0;
#X connect 12 0 15 0;
#X connect 13 0 12 1;
#X connect 15 0 16 0;
