#N canvas 960 96 960 984 10;
#X declare -path pdjs;
#X declare -lib Gem;
#X text 5 4 GEM-ini;
#X obj 56 3 declare -path pdjs;
#X floatatom 124 284 0 0 0 0 - - -;
#X obj 49 249 gemhead;
#X floatatom 112 388 0 0 0 0 - - -;
#X obj 34 167 gemhead 1;
#X obj 34 190 world_light;
#X obj 49 339 translate 0 0 0 1;
#X obj 124 308 / 100;
#X obj 67 28 declare -lib Gem;
#X obj 49 410 rotate 0 1 0 0;
#X obj 55 557 bng 15 250 50 0 empty empty empty 17 7 0 10 -262144 -1
-1;
#X obj 55 691 print;
#X obj 54 445 model ./models/SatDish.obj;
#X obj 489 430 teapot;
#X msg 488 99 draw line;
#X floatatom 552 180 0 0 0 0 - - -;
#X obj 512 157 color;
#X msg 553 155 1 1 1;
#X msg 553 134 1 0 0;
#X obj 513 315 square;
#X msg 558 206 draw line;
#X msg 558 226 draw fill;
#X msg 559 249 width 1;
#X msg 560 269 width 10;
#X obj 512 208 rotate;
#X obj 512 338 rectangle 2 1;
#X obj 510 361 disk 2 5 1;
#X obj 507 384 primTri, f 20;
#X obj 518 407 cube;
#X obj 549 406 sphere;
#X obj 536 430 cylinder;
#X obj 336 321 r fogmess;
#N canvas 26 156 290 300 Gem.init 0;
#X obj 71 191 outlet;
#X obj 71 81 loadbang;
#X msg 101 134 reset;
#X obj 71 109 t b b;
#X msg 71 164 lighting 1;
#X msg 131 165 fogcolor 1 0 0;
#X connect 1 0 3 0;
#X connect 2 0 0 0;
#X connect 3 0 4 0;
#X connect 3 0 5 0;
#X connect 3 1 2 0;
#X connect 4 0 0 0;
#X connect 5 0 0 0;
#X restore 355 342 pd Gem.init;
#N canvas 340 107 682 322 gemwin 0;
#X obj 102 122 tgl 15 0 \$0-gemstart \$0-gemstart empty 17 7 0 10 -262144
-1 -1 0 1;
#X obj 102 161 r \$0-gemstart;
#X obj 102 182 select 1 0;
#X msg 102 214 create \, 1;
#X msg 177 215 destroy;
#X obj 102 239 t a;
#X obj 318 54 inlet;
#X obj 318 255 gemwin;
#X obj 318 100 t a a;
#X obj 318 287 outlet;
#X obj 350 128 route create destroy;
#X obj 350 150 t b;
#X msg 350 172 1;
#X obj 390 150 t b;
#X msg 390 172 0;
#X obj 350 195 t f;
#X msg 350 219 set \$1;
#X text 118 122 rendering;
#X connect 1 0 2 0;
#X connect 2 0 3 0;
#X connect 2 1 4 0;
#X connect 3 0 5 0;
#X connect 4 0 5 0;
#X connect 5 0 8 0;
#X connect 6 0 8 0;
#X connect 7 0 9 0;
#X connect 8 0 7 0;
#X connect 8 1 10 0;
#X connect 10 0 11 0;
#X connect 10 1 13 0;
#X connect 11 0 12 0;
#X connect 12 0 15 0;
#X connect 13 0 14 0;
#X connect 14 0 15 0;
#X connect 15 0 16 0;
#X connect 16 0 0 0;
#X coords 0 -1 1 1 85 40 1 100 100;
#X restore 336 381 pd gemwin;
#X msg 349 44 \; fogmess fogmode 2 \; fogmess fog 0.1;
#X msg 36 88 \; fogmess fogmode 0;
#X msg 186 42 \; fogmess fogmode 1 \; fogmess fog 0.7;
#X msg 499 48 \; fogmess fogmode 3 \; fogmess fog 0.1;
#X floatatom 103 540 5 0 0 0 - - -;
#X msg 188 561 append test one two three;
#X obj 122 645 bng 15 250 50 0 empty empty empty 17 7 0 10 -262144
-1 -1;
#X obj 55 668 js m-list.js;
#X connect 2 0 8 0;
#X connect 3 0 7 0;
#X connect 4 0 10 1;
#X connect 5 0 6 0;
#X connect 7 0 10 0;
#X connect 8 0 7 1;
#X connect 11 0 42 0;
#X connect 15 0 14 0;
#X connect 16 0 25 1;
#X connect 17 0 25 0;
#X connect 18 0 17 1;
#X connect 19 0 17 1;
#X connect 21 0 20 0;
#X connect 22 0 20 0;
#X connect 22 0 14 0;
#X connect 23 0 20 0;
#X connect 24 0 20 0;
#X connect 25 0 20 0;
#X connect 32 0 34 0;
#X connect 33 0 34 0;
#X connect 39 0 42 0;
#X connect 40 0 42 0;
#X connect 41 0 42 1;
#X connect 42 0 12 0;
