#N canvas 234 132 683 542 10;
#X obj 44 351 rotateXYZ, f 20;
#X obj 39 301 translateXYZ, f 17;
#X floatatom 67 274 5 0 0 0 - - -;
#X floatatom 102 274 5 0 0 0 - - -;
#X floatatom 137 274 5 0 0 0 - - -;
#X floatatom 162 323 5 0 0 0 - - -;
#X floatatom 205 319 5 0 0 0 - - -;
#X floatatom 247 328 5 0 0 0 - - -;
#X obj 39 489 outlet;
#X obj 318 25 inlet;
#X obj 317 60 route reset;
#X msg 317 83 0 0 0 0 0 0;
#X obj 317 106 unpack 0 0 0 0 0 0;
#X obj 39 23 inlet;
#X connect 0 0 8 0;
#X connect 1 0 0 0;
#X connect 2 0 1 1;
#X connect 3 0 1 2;
#X connect 4 0 1 3;
#X connect 5 0 0 1;
#X connect 6 0 0 2;
#X connect 7 0 0 3;
#X connect 9 0 10 0;
#X connect 10 0 11 0;
#X connect 10 1 8 0;
#X connect 11 0 12 0;
#X connect 12 0 2 0;
#X connect 12 1 3 0;
#X connect 12 2 4 0;
#X connect 12 3 5 0;
#X connect 12 4 6 0;
#X connect 12 5 7 0;
#X connect 13 0 1 0;
