#N canvas 434 123 1412 906 10;
#X declare -lib Gem;
#X obj 27 249 rotateXYZ;
#X obj 604 389 pix_texture;
#X obj 27 271 color 1 0 1;
#X obj 604 410 rectangle 5.36 4.02;
#X obj 596 24 tgl 15 0 empty empty empty 17 7 0 10 -262144 -1 -1 1
1;
#X obj 24 22 bng 15 250 50 0 empty empty empty 17 7 0 10 -262144 -1
-1;
#X obj 27 402 cube;
#X msg 41 351 draw line;
#X floatatom 67 402 5 0 0 0 - - -;
#X msg 42 372 draw fill;
#X obj 44 222 3drunk;
#X obj 44 203 tgl 15 0 empty empty empty 17 7 0 10 -262144 -1 -1 1
1;
#X obj 27 162 separator;
#X obj 44 111 3drunk;
#X obj 44 92 tgl 15 0 empty empty empty 17 7 0 10 -262144 -1 -1 1 1
;
#N canvas 199 392 800 609 m-onz___vj 0;
#X msg 10 161 create \, 1;
#X obj 9 186 gemwin;
#X obj 447 99 gemhead 5;
#X obj 446 122 world_light;
#X obj 12 263 gemhead 20;
#X obj 12 287 gemframebuffer;
#X obj 12 333 t a a b;
#X obj 12 310 translateXYZ 0 0 -4;
#X obj 93 242 loadbang;
#X obj 6 9 declare -lib Gem;
#X msg 93 262 dimen 1024 768;
#X msg 94 187 reset \, dimen 1024 768 \, create \, 1;
#X msg 91 141 destroy \, 1;
#X obj 12 542 pix_buffer \$0-framebuffer 2;
#X obj 12 357 t a b;
#X msg 44 378 snap;
#X obj 12 426 t a b;
#X msg 192 495 1;
#X obj 12 517 pix_buffer_write \$0-framebuffer;
#X obj 12 402 pix_snap 0 0 1024 768;
#X obj 103 376 outlet;
#X obj 333 140 gemhead 30;
#X obj 333 165 t a b;
#X msg 510 166 1;
#X obj 333 187 pix_buffer_read \$0-framebuffer;
#X obj 333 211 outlet;
#X obj 8 46 inlet;
#X obj 333 7 inlet;
#X obj 64 96 b;
#X msg 92 162 lighting 1;
#X obj 92 117 del 500;
#X obj 11 69 spigot 1;
#X obj 92 58 del 11;
#X msg 91 80 0;
#X connect 0 0 1 0;
#X connect 2 0 3 0;
#X connect 4 0 5 0;
#X connect 5 0 7 0;
#X connect 6 0 14 0;
#X connect 6 1 20 0;
#X connect 7 0 6 0;
#X connect 8 0 10 0;
#X connect 10 0 5 0;
#X connect 11 0 1 0;
#X connect 12 0 1 0;
#X connect 14 0 19 0;
#X connect 14 1 15 0;
#X connect 15 0 19 0;
#X connect 16 0 18 0;
#X connect 16 1 17 0;
#X connect 17 0 18 1;
#X connect 19 0 16 0;
#X connect 21 0 22 0;
#X connect 22 0 24 0;
#X connect 22 1 23 0;
#X connect 23 0 24 1;
#X connect 24 0 25 0;
#X connect 26 0 31 0;
#X connect 27 0 21 0;
#X connect 27 0 4 0;
#X connect 27 0 2 0;
#X connect 28 0 11 0;
#X connect 28 0 30 0;
#X connect 28 0 32 0;
#X connect 29 0 1 0;
#X connect 30 0 29 0;
#X connect 31 0 28 0;
#X connect 32 0 33 0;
#X connect 33 0 31 1;
#X restore 23 43 pd m-onz___vj;
#X f 97;
#X obj 605 249 pix_invert;
#X obj 678 121 loadbang;
#X msg 491 75 1;
#X obj 119 249 rotateXYZ;
#X obj 119 402 cube;
#X msg 133 351 draw line;
#X floatatom 159 402 5 0 0 0 - - -;
#X msg 134 372 draw fill;
#X obj 136 222 3drunk;
#X obj 136 203 tgl 15 0 empty empty empty 17 7 0 10 -262144 -1 -1 1
1;
#X obj 119 162 separator;
#X obj 119 271 color 1 1 1;
#X obj 166 519 bng 25 250 50 0 empty empty empty 0 -6 0 8 -262144 -1
-1;
#X obj 293 612 bng 15 250 50 0 empty empty end_reached 20 7 0 10 -262144
-1 -1;
#X obj 166 548 openpanel;
#X msg 166 568 open \$1;
#X obj 228 613 pix_film;
#X msg 269 580 auto \$1;
#X obj 269 562 tgl 15 0 empty empty empty 0 -6 0 8 -262144 -1 -1 0
1;
#X obj 604 360 pix_lumaoffset;
#X floatatom 650 305 5 0 0 2 offset - -;
#X floatatom 697 305 5 0 0 2 gap - -;
#X obj 686 322 tgl 15 0 empty empty empty 0 -6 0 8 -262144 -1 -1 0
1;
#X msg 686 340 smooth \$1;
#X msg 618 339 fill \$1;
#X obj 618 321 tgl 15 0 empty empty empty 0 -6 0 8 -262144 -1 -1 0
1;
#X msg 674 193 0;
#X obj 230 832 pix_texture;
#X obj 232 159 separator;
#X obj 230 184 rotateXYZ 0 0 0;
#X obj 27 138 rotateXYZ 0 0 0;
#X obj 231 856 rectangle 5.36 4.02;
#X obj 791 248 part_head;
#X text 912 501 set the number per frame;
#X text 910 529 set the age to kill at;
#X text 920 277 the velocity domain;
#X text 919 292 a sphere at 0 \, 0.2 \, 0;
#X text 920 311 radius = 0.3;
#X msg 895 337 0 0.2 0 0.3;
#X msg 982 336 0.2 0 0 0.3;
#X obj 786 569 part_render;
#X obj 791 295 part_size 1;
#X msg 881 272 2;
#X msg 851 271 1;
#X text 1062 329 <domain>: one of "point" \, "line" \, "triangle" \,
"plane" \, "box" \, "sphere" \, "cylinder" \, "cone" \, "blob" \, "disc"
\, "rectangle";
#X obj 786 500 part_source 22;
#X obj 784 639 cube 0.2;
#X obj 786 470 part_velocity sphere 0 0.2 0 0.3;
#X obj 786 531 part_killold 40;
#X obj 311 157 separator;
#X msg 807 600 draw line;
#X msg 913 236 speed 0.1;
#X obj 228 741 pix_invert;
#X msg 243 717 1;
#X obj 285 800 pix_lumaoffset;
#X floatatom 331 745 5 0 0 2 offset - -;
#X floatatom 378 745 5 0 0 2 gap - -;
#X obj 367 762 tgl 15 0 empty empty empty 0 -6 0 8 -262144 -1 -1 0
1;
#X msg 367 780 smooth \$1;
#X msg 299 779 fill \$1;
#X obj 299 761 tgl 15 0 empty empty empty 0 -6 0 8 -262144 -1 -1 0
1;
#X obj 564 747 gemframebuffer;
#X obj 573 627 gemhead 50;
#X obj 823 717 pix_texture;
#X obj 564 770 translateXYZ 0 0 -4;
#X msg 714 854 draw line;
#X msg 714 873 draw point;
#X floatatom 730 942 5 0 0 0 - - -;
#X obj 642 964 mesh_square 3 3;
#X msg 714 835 draw default;
#X msg 575 845 grid \$1;
#X floatatom 575 827 5 0 0 0 - - -;
#X floatatom 580 869 5 0 0 0 - - -;
#X msg 580 887 gridX \$1;
#X floatatom 649 869 5 0 0 0 - - -;
#X msg 649 887 gridY \$1;
#X obj 575 914 t a;
#X obj 714 894 t a;
#X obj 823 739 translateXYZ 0 0 0;
#X obj 689 810 loadbang;
#X msg 731 920 4;
#X obj 564 794 color 1 1 1;
#X msg 650 845 42;
#X obj 826 826 model ./models/SignalTower.obj;
#X obj 939 762 rotateXYZ;
#X obj 956 735 3drunk;
#X obj 956 716 tgl 15 0 empty empty empty 17 7 0 10 -262144 -1 -1 0
1;
#X obj 826 803 scale 3;
#X obj 895 904 sphere 1.9;
#X connect 0 0 2 0;
#X connect 1 0 3 0;
#X connect 2 0 6 0;
#X connect 4 0 15 1;
#X connect 5 0 15 0;
#X connect 5 0 42 0;
#X connect 5 0 18 0;
#X connect 7 0 6 0;
#X connect 8 0 6 1;
#X connect 9 0 6 0;
#X connect 10 0 0 1;
#X connect 10 1 0 2;
#X connect 10 2 0 3;
#X connect 11 0 10 0;
#X connect 12 0 0 0;
#X connect 12 0 26 0;
#X connect 13 0 46 1;
#X connect 13 1 46 2;
#X connect 13 2 46 3;
#X connect 14 0 13 0;
#X connect 15 0 44 0;
#X connect 15 0 46 0;
#X connect 15 0 65 0;
#X connect 15 1 16 0;
#X connect 16 0 35 0;
#X connect 17 0 42 0;
#X connect 17 0 67 0;
#X connect 17 0 66 0;
#X connect 18 0 4 0;
#X connect 18 0 14 0;
#X connect 18 0 11 0;
#X connect 18 0 25 0;
#X connect 19 0 27 0;
#X connect 21 0 20 0;
#X connect 22 0 20 1;
#X connect 23 0 20 0;
#X connect 24 0 19 1;
#X connect 24 1 19 2;
#X connect 24 2 19 3;
#X connect 25 0 24 0;
#X connect 26 0 19 0;
#X connect 27 0 20 0;
#X connect 28 0 30 0;
#X connect 30 0 31 0;
#X connect 31 0 32 0;
#X connect 32 0 68 0;
#X connect 32 2 29 0;
#X connect 33 0 32 0;
#X connect 34 0 33 0;
#X connect 35 0 1 0;
#X connect 36 0 35 1;
#X connect 37 0 35 2;
#X connect 38 0 39 0;
#X connect 39 0 35 0;
#X connect 40 0 35 0;
#X connect 41 0 40 0;
#X connect 42 0 16 0;
#X connect 43 0 47 0;
#X connect 44 0 45 0;
#X connect 45 0 32 0;
#X connect 46 0 12 0;
#X connect 48 0 57 0;
#X connect 54 0 63 2;
#X connect 55 0 63 2;
#X connect 56 0 62 0;
#X connect 57 0 63 0;
#X connect 58 0 57 1;
#X connect 59 0 57 1;
#X connect 61 0 64 0;
#X connect 63 0 61 0;
#X connect 64 0 56 0;
#X connect 65 0 48 0;
#X connect 65 0 79 0;
#X connect 66 0 62 0;
#X connect 67 0 48 0;
#X connect 68 0 70 0;
#X connect 69 0 68 0;
#X connect 70 0 43 0;
#X connect 71 0 70 1;
#X connect 72 0 70 2;
#X connect 73 0 74 0;
#X connect 74 0 70 0;
#X connect 75 0 70 0;
#X connect 76 0 75 0;
#X connect 77 0 80 0;
#X connect 77 1 79 1;
#X connect 78 0 77 0;
#X connect 79 0 94 0;
#X connect 80 0 97 0;
#X connect 81 0 93 0;
#X connect 82 0 93 0;
#X connect 83 0 84 1;
#X connect 85 0 93 0;
#X connect 86 0 92 0;
#X connect 87 0 86 0;
#X connect 88 0 89 0;
#X connect 89 0 92 0;
#X connect 90 0 91 0;
#X connect 91 0 92 0;
#X connect 92 0 84 0;
#X connect 93 0 84 0;
#X connect 94 0 100 0;
#X connect 95 0 96 0;
#X connect 95 0 98 0;
#X connect 95 0 81 0;
#X connect 96 0 83 0;
#X connect 97 0 84 0;
#X connect 98 0 90 0;
#X connect 100 0 104 0;
#X connect 101 0 100 1;
#X connect 101 1 100 2;
#X connect 101 2 100 3;
#X connect 102 0 101 0;
#X connect 103 0 99 0;
