#N canvas 1024 96 896 984 10;
#X declare -lib Gem;
#X obj 1196 370 cube;
#X msg 1293 333 draw line;
#X msg 1294 307 draw fill;
#X obj 246 337 drunk, f 18;
#X obj 246 318 tgl 15 0 empty empty empty 17 7 0 10 -262144 -1 -1 1
1;
#X floatatom 316 318 5 0 0 0 - - -;
#X floatatom 351 318 5 0 0 0 - - -;
#X floatatom 246 360 5 0 0 0 - - -;
#X floatatom 281 317 5 0 0 0 - - -;
#X floatatom 1218 347 5 0 0 0 - - -;
#X obj 1262 140 drunk, f 18;
#X obj 1262 121 tgl 15 0 empty empty empty 17 7 0 10 -262144 -1 -1
0 1;
#X floatatom 1332 121 5 0 0 0 - - -;
#X floatatom 1367 121 5 0 0 0 - - -;
#X floatatom 1262 163 5 0 0 0 - - -;
#X floatatom 1297 120 5 0 0 0 - - -;
#X obj 1218 298 cylinder;
#X msg 1295 282 reset;
#X msg 9 34 create \, 1;
#X obj 9 79 gemwin;
#X obj 11 906 pix_buffer \$0-framebuffer 2;
#X obj 173 8 gemhead 5;
#X obj 173 29 world_light;
#X obj 12 156 gemhead 20;
#X obj 12 180 gemframebuffer;
#X obj 152 446 rotateXYZ;
#X obj 12 226 t a a b;
#X obj 11 751 t a b;
#X msg 43 772 snap;
#X obj 11 820 t a b;
#X msg 191 859 1;
#X obj 11 881 pix_buffer_write \$0-framebuffer;
#X obj 537 78 gemhead 30;
#X obj 537 122 t a b;
#X msg 714 123 1;
#X obj 537 144 pix_buffer_read \$0-framebuffer;
#X obj 536 760 pix_texture;
#X obj 12 203 translateXYZ 0 0 -4;
#X obj 152 468 color 1 0 1;
#X text 6 927 temporary storage;
#X obj 93 135 loadbang;
#X text 608 98 fetch framebuffer-pix;
#X obj 6 9 declare -lib Gem;
#X msg 93 155 dimen 1024 768;
#X msg 223 68 reset \, dimen 1024 768 \, create \, 1;
#X msg 91 34 destroy \, 1;
#X obj 11 796 pix_snap 0 0 1024 768;
#X obj 313 385 drunk, f 18;
#X obj 313 366 tgl 15 0 empty empty empty 17 7 0 10 -262144 -1 -1 0
1;
#X floatatom 383 366 5 0 0 0 - - -;
#X floatatom 418 366 5 0 0 0 - - -;
#X floatatom 313 408 5 0 0 0 - - -;
#X floatatom 348 365 5 0 0 0 - - -;
#X obj 400 426 drunk, f 18;
#X obj 400 407 tgl 15 0 empty empty empty 17 7 0 10 -262144 -1 -1 0
1;
#X floatatom 470 407 5 0 0 0 - - -;
#X floatatom 505 407 5 0 0 0 - - -;
#X floatatom 400 449 5 0 0 0 - - -;
#X floatatom 435 406 5 0 0 0 - - -;
#X obj 152 491 cube;
#X msg 239 500 draw line;
#X obj 593 853 / 100;
#X floatatom 593 832 5 0 0 0 - - -;
#X obj 635 853 / 100;
#X floatatom 635 832 5 0 0 0 - - -;
#X floatatom 592 876 5 0 0 0 - - -;
#X floatatom 639 878 5 0 0 0 - - -;
#X obj 536 896 rectangle 5.36 4.02;
#X floatatom 613 357 5 0 0 0 - - -;
#X obj 600 407 pix_tIIR 2 2;
#X obj 613 377 * 0.01;
#X obj 621 319 unpack 30 60 10 50 50 -20;
#X floatatom 662 357 5 0 0 0 - - -;
#X obj 662 377 * 0.01;
#X floatatom 709 357 5 0 0 0 - - -;
#X obj 709 377 * 0.01;
#X floatatom 758 357 5 0 0 0 - - -;
#X obj 758 377 * 0.01;
#X floatatom 805 357 5 0 0 0 - - -;
#X obj 805 377 * 0.01;
#X floatatom 854 357 5 0 0 0 - - -;
#X obj 854 377 * 0.01;
#X msg 622 262 bang;
#X obj 624 286 pack 30 60 10 50 50 -20;
#X obj 675 518 pix_lumaoffset;
#X floatatom 721 463 5 0 0 2 offset - -;
#X floatatom 768 463 5 0 0 2 gap - -;
#X obj 757 480 tgl 15 0 empty empty empty 0 -6 0 8 -262144 -1 -1 0
1;
#X msg 757 498 smooth \$1;
#X msg 689 497 fill \$1;
#X obj 689 479 tgl 15 0 empty empty empty 0 -6 0 8 -262144 -1 -1 0
1;
#X floatatom 192 529 5 0 0 0 - - -;
#X msg 240 521 draw fill;
#X obj 537 57 tgl 15 0 empty empty empty 17 7 0 10 -262144 -1 -1 1
1;
#X obj 10 135 tgl 15 0 empty empty empty 17 7 0 10 -262144 -1 -1 1
1;
#X msg 92 55 lighting 0;
#X connect 3 0 7 0;
#X connect 4 0 3 0;
#X connect 5 0 3 2;
#X connect 6 0 3 3;
#X connect 7 0 25 2;
#X connect 8 0 3 1;
#X connect 9 0 0 1;
#X connect 10 0 14 0;
#X connect 11 0 10 0;
#X connect 12 0 10 2;
#X connect 13 0 10 3;
#X connect 15 0 10 1;
#X connect 18 0 19 0;
#X connect 21 0 22 0;
#X connect 23 0 24 0;
#X connect 24 0 37 0;
#X connect 25 0 38 0;
#X connect 26 0 27 0;
#X connect 26 1 25 0;
#X connect 27 0 46 0;
#X connect 27 1 28 0;
#X connect 28 0 46 0;
#X connect 29 0 31 0;
#X connect 29 1 30 0;
#X connect 30 0 31 1;
#X connect 32 0 33 0;
#X connect 33 0 35 0;
#X connect 33 1 34 0;
#X connect 34 0 35 1;
#X connect 35 0 69 0;
#X connect 36 0 67 0;
#X connect 37 0 26 0;
#X connect 38 0 59 0;
#X connect 40 0 43 0;
#X connect 43 0 24 0;
#X connect 44 0 19 0;
#X connect 45 0 19 0;
#X connect 46 0 29 0;
#X connect 47 0 51 0;
#X connect 48 0 47 0;
#X connect 49 0 47 2;
#X connect 50 0 47 3;
#X connect 51 0 25 3;
#X connect 52 0 47 1;
#X connect 53 0 57 0;
#X connect 54 0 53 0;
#X connect 55 0 53 2;
#X connect 56 0 53 3;
#X connect 57 0 25 1;
#X connect 58 0 53 1;
#X connect 60 0 59 0;
#X connect 61 0 65 0;
#X connect 62 0 61 0;
#X connect 63 0 66 0;
#X connect 64 0 63 0;
#X connect 65 0 67 1;
#X connect 66 0 67 2;
#X connect 68 0 70 0;
#X connect 69 0 84 0;
#X connect 70 0 69 1;
#X connect 71 0 68 0;
#X connect 71 1 72 0;
#X connect 71 2 74 0;
#X connect 71 3 76 0;
#X connect 71 4 78 0;
#X connect 71 5 80 0;
#X connect 72 0 73 0;
#X connect 73 0 69 2;
#X connect 74 0 75 0;
#X connect 75 0 69 3;
#X connect 76 0 77 0;
#X connect 77 0 69 4;
#X connect 78 0 79 0;
#X connect 79 0 69 5;
#X connect 80 0 81 0;
#X connect 81 0 69 6;
#X connect 82 0 83 0;
#X connect 83 0 71 0;
#X connect 84 0 36 0;
#X connect 85 0 84 1;
#X connect 86 0 84 2;
#X connect 87 0 88 0;
#X connect 88 0 84 0;
#X connect 89 0 84 0;
#X connect 90 0 89 0;
#X connect 91 0 59 1;
#X connect 92 0 59 0;
#X connect 93 0 32 0;
#X connect 94 0 23 0;
#X connect 95 0 19 0;
