#N canvas 41 136 702 862 10;
#X declare -lib Gem;
#X obj 1196 370 cube;
#X msg 1293 333 draw line;
#X msg 1294 307 draw fill;
#X floatatom 1218 347 5 0 0 0 - - -;
#X obj 1262 140 drunk, f 18;
#X obj 1262 121 tgl 15 0 empty empty empty 17 7 0 10 -262144 -1 -1
0 1;
#X floatatom 1332 121 5 0 0 0 - - -;
#X floatatom 1367 121 5 0 0 0 - - -;
#X floatatom 1262 163 5 0 0 0 - - -;
#X floatatom 1297 120 5 0 0 0 - - -;
#X obj 1218 298 cylinder;
#X msg 1295 282 reset;
#X obj 27 249 rotateXYZ;
#X obj 516 118 pix_texture;
#X obj 27 271 color 1 0 1;
#X obj 516 139 rectangle 5.36 4.02;
#X obj 516 31 tgl 15 0 empty empty empty 17 7 0 10 -262144 -1 -1 1
1;
#X obj 27 33 bng 15 250 50 0 empty empty empty 17 7 0 10 -262144 -1
-1;
#X obj 27 402 cube;
#X msg 41 351 draw line;
#X floatatom 67 402 5 0 0 0 - - -;
#X msg 42 372 draw fill;
#X obj 44 222 3drunk;
#X obj 44 203 tgl 15 0 empty empty empty 17 7 0 10 -262144 -1 -1 1
1;
#X obj 27 162 separator;
#X obj 27 138 rotateXYZ;
#X obj 44 111 3drunk;
#X obj 44 92 tgl 15 0 empty empty empty 17 7 0 10 -262144 -1 -1 1 1
;
#N canvas 209 400 800 609 m-onz___vj 0;
#X msg 9 141 create \, 1;
#X obj 9 186 gemwin;
#X obj 447 99 gemhead 5;
#X obj 446 122 world_light;
#X obj 12 263 gemhead 20;
#X obj 12 287 gemframebuffer;
#X obj 12 333 t a a b;
#X obj 12 310 translateXYZ 0 0 -4;
#X obj 93 242 loadbang;
#X obj 6 9 declare -lib Gem;
#X msg 93 262 dimen 1024 768;
#X msg 94 187 reset \, dimen 1024 768 \, create \, 1;
#X msg 91 141 destroy \, 1;
#X obj 12 542 pix_buffer \$0-framebuffer 2;
#X obj 12 357 t a b;
#X msg 44 378 snap;
#X obj 12 426 t a b;
#X msg 192 495 1;
#X obj 12 517 pix_buffer_write \$0-framebuffer;
#X obj 12 402 pix_snap 0 0 1024 768;
#X obj 103 376 outlet;
#X obj 333 140 gemhead 30;
#X obj 333 165 t a b;
#X msg 510 166 1;
#X obj 333 187 pix_buffer_read \$0-framebuffer;
#X obj 333 211 outlet;
#X obj 8 46 inlet;
#X obj 333 7 inlet;
#X obj 64 96 b;
#X msg 92 162 lighting 1;
#X obj 92 117 del 500;
#X obj 11 69 spigot 1;
#X obj 92 58 del 11;
#X msg 91 80 0;
#X connect 0 0 1 0;
#X connect 2 0 3 0;
#X connect 4 0 5 0;
#X connect 5 0 7 0;
#X connect 6 0 14 0;
#X connect 6 1 20 0;
#X connect 7 0 6 0;
#X connect 8 0 10 0;
#X connect 10 0 5 0;
#X connect 11 0 1 0;
#X connect 12 0 1 0;
#X connect 14 0 19 0;
#X connect 14 1 15 0;
#X connect 15 0 19 0;
#X connect 16 0 18 0;
#X connect 16 1 17 0;
#X connect 17 0 18 1;
#X connect 19 0 16 0;
#X connect 21 0 22 0;
#X connect 22 0 24 0;
#X connect 22 1 23 0;
#X connect 23 0 24 1;
#X connect 24 0 25 0;
#X connect 26 0 31 0;
#X connect 27 0 21 0;
#X connect 27 0 4 0;
#X connect 27 0 2 0;
#X connect 28 0 11 0;
#X connect 28 0 30 0;
#X connect 28 0 32 0;
#X connect 29 0 1 0;
#X connect 30 0 29 0;
#X connect 31 0 28 0;
#X connect 32 0 33 0;
#X connect 33 0 31 1;
#X restore 27 51 pd m-onz___vj;
#X f 82;
#X obj 516 95 pix_invert;
#X msg 525 73 0;
#X obj 526 51 loadbang;
#X msg 491 75 1;
#X obj 119 249 rotateXYZ;
#X obj 119 402 cube;
#X msg 133 351 draw line;
#X floatatom 159 402 5 0 0 0 - - -;
#X msg 134 372 draw fill;
#X obj 136 222 3drunk;
#X obj 136 203 tgl 15 0 empty empty empty 17 7 0 10 -262144 -1 -1 1
1;
#X obj 119 162 separator;
#X obj 119 271 color 1 1 1;
#X obj 309 158 gemframebuffer;
#X obj 472 342 rotateXYZ;
#X obj 308 134 gemhead 50;
#X obj 472 229 pix_texture;
#X obj 309 181 translateXYZ 0 0 -4;
#X obj 236 415 cnv 15 220 280 empty empty empty 20 12 0 14 -24198 -66577
0;
#X msg 239 446 draw line;
#X msg 239 465 draw point;
#X floatatom 396 639 5 0 0 0 - - -;
#X obj 308 661 mesh_square 3 3;
#X msg 239 427 draw default;
#X msg 241 542 grid \$1;
#X floatatom 241 524 5 0 0 0 - - -;
#X floatatom 246 566 5 0 0 0 - - -;
#X msg 246 584 gridX \$1;
#X floatatom 315 566 5 0 0 0 - - -;
#X msg 315 584 gridY \$1;
#X obj 241 611 t a;
#X obj 239 486 t a;
#X obj 472 251 translateXYZ 0 0 0;
#X obj 490 319 3drunk;
#X obj 488 300 tgl 15 0 empty empty empty 17 7 0 10 -262144 -1 -1 1
1;
#X obj 397 453 loadbang;
#X msg 397 617 4;
#X obj 309 205 color 1 1 1;
#X obj 472 366 sphere 1.3;
#X msg 371 484 42;
#X connect 3 0 0 1;
#X connect 4 0 8 0;
#X connect 5 0 4 0;
#X connect 6 0 4 2;
#X connect 7 0 4 3;
#X connect 9 0 4 1;
#X connect 12 0 14 0;
#X connect 13 0 15 0;
#X connect 14 0 18 0;
#X connect 16 0 28 1;
#X connect 17 0 28 0;
#X connect 17 0 30 0;
#X connect 17 0 32 0;
#X connect 19 0 18 0;
#X connect 20 0 18 1;
#X connect 21 0 18 0;
#X connect 22 0 12 1;
#X connect 22 1 12 2;
#X connect 22 2 12 3;
#X connect 23 0 22 0;
#X connect 24 0 12 0;
#X connect 24 0 40 0;
#X connect 25 0 24 0;
#X connect 26 0 25 1;
#X connect 26 1 25 2;
#X connect 26 2 25 3;
#X connect 27 0 26 0;
#X connect 28 0 25 0;
#X connect 28 0 45 0;
#X connect 28 1 29 0;
#X connect 29 0 13 0;
#X connect 30 0 29 0;
#X connect 31 0 30 0;
#X connect 32 0 16 0;
#X connect 32 0 27 0;
#X connect 32 0 23 0;
#X connect 32 0 39 0;
#X connect 32 0 63 0;
#X connect 33 0 41 0;
#X connect 35 0 34 0;
#X connect 36 0 34 1;
#X connect 37 0 34 0;
#X connect 38 0 33 1;
#X connect 38 1 33 2;
#X connect 38 2 33 3;
#X connect 39 0 38 0;
#X connect 40 0 33 0;
#X connect 41 0 34 0;
#X connect 42 0 46 0;
#X connect 42 1 45 1;
#X connect 43 0 67 0;
#X connect 44 0 42 0;
#X connect 45 0 61 0;
#X connect 46 0 66 0;
#X connect 48 0 60 0;
#X connect 49 0 60 0;
#X connect 50 0 51 1;
#X connect 52 0 60 0;
#X connect 53 0 59 0;
#X connect 54 0 53 0;
#X connect 55 0 56 0;
#X connect 56 0 59 0;
#X connect 57 0 58 0;
#X connect 58 0 59 0;
#X connect 59 0 51 0;
#X connect 60 0 51 0;
#X connect 61 0 43 0;
#X connect 62 0 43 1;
#X connect 62 1 43 2;
#X connect 62 2 43 3;
#X connect 63 0 62 0;
#X connect 64 0 65 0;
#X connect 64 0 68 0;
#X connect 64 0 48 0;
#X connect 65 0 50 0;
#X connect 66 0 51 0;
#X connect 68 0 57 0;
