#N canvas 951 116 883 862 10;
#X declare -lib Gem;
#X obj 27 249 rotateXYZ;
#X obj 605 754 pix_texture;
#X obj 27 271 color 1 0 1;
#X obj 605 775 rectangle 5.36 4.02;
#X obj 596 24 tgl 15 0 empty empty empty 17 7 0 10 -262144 -1 -1 1
1;
#X obj 24 22 bng 15 250 50 0 empty empty empty 17 7 0 10 -262144 -1
-1;
#X obj 27 402 cube;
#X msg 41 351 draw line;
#X floatatom 67 402 5 0 0 0 - - -;
#X msg 42 372 draw fill;
#X obj 44 222 3drunk;
#X obj 44 203 tgl 15 0 empty empty empty 17 7 0 10 -262144 -1 -1 0
1;
#X obj 27 162 separator;
#X obj 44 111 3drunk;
#X obj 44 92 tgl 15 0 empty empty empty 17 7 0 10 -262144 -1 -1 1 1
;
#N canvas 199 392 800 609 m-onz___vj 0;
#X msg 10 161 create \, 1;
#X obj 9 186 gemwin;
#X obj 447 99 gemhead 5;
#X obj 446 122 world_light;
#X obj 12 263 gemhead 20;
#X obj 12 287 gemframebuffer;
#X obj 12 333 t a a b;
#X obj 12 310 translateXYZ 0 0 -4;
#X obj 93 242 loadbang;
#X obj 6 9 declare -lib Gem;
#X msg 93 262 dimen 1024 768;
#X msg 94 187 reset \, dimen 1024 768 \, create \, 1;
#X msg 91 141 destroy \, 1;
#X obj 12 542 pix_buffer \$0-framebuffer 2;
#X obj 12 357 t a b;
#X msg 44 378 snap;
#X obj 12 426 t a b;
#X msg 192 495 1;
#X obj 12 517 pix_buffer_write \$0-framebuffer;
#X obj 12 402 pix_snap 0 0 1024 768;
#X obj 103 376 outlet;
#X obj 333 140 gemhead 30;
#X obj 333 165 t a b;
#X msg 510 166 1;
#X obj 333 187 pix_buffer_read \$0-framebuffer;
#X obj 333 211 outlet;
#X obj 8 46 inlet;
#X obj 333 7 inlet;
#X obj 64 96 b;
#X msg 92 162 lighting 1;
#X obj 92 117 del 500;
#X obj 11 69 spigot 1;
#X obj 92 58 del 11;
#X msg 91 80 0;
#X connect 0 0 1 0;
#X connect 2 0 3 0;
#X connect 4 0 5 0;
#X connect 5 0 7 0;
#X connect 6 0 14 0;
#X connect 6 1 20 0;
#X connect 7 0 6 0;
#X connect 8 0 10 0;
#X connect 10 0 5 0;
#X connect 11 0 1 0;
#X connect 12 0 1 0;
#X connect 14 0 19 0;
#X connect 14 1 15 0;
#X connect 15 0 19 0;
#X connect 16 0 18 0;
#X connect 16 1 17 0;
#X connect 17 0 18 1;
#X connect 19 0 16 0;
#X connect 21 0 22 0;
#X connect 22 0 24 0;
#X connect 22 1 23 0;
#X connect 23 0 24 1;
#X connect 24 0 25 0;
#X connect 26 0 31 0;
#X connect 27 0 21 0;
#X connect 27 0 4 0;
#X connect 27 0 2 0;
#X connect 28 0 11 0;
#X connect 28 0 30 0;
#X connect 28 0 32 0;
#X connect 29 0 1 0;
#X connect 30 0 29 0;
#X connect 31 0 28 0;
#X connect 32 0 33 0;
#X connect 33 0 31 1;
#X restore 23 43 pd m-onz___vj;
#X f 97;
#X obj 605 249 pix_invert;
#X obj 607 197 loadbang;
#X msg 491 75 1;
#X obj 119 249 rotateXYZ;
#X obj 119 402 cube;
#X msg 133 351 draw line;
#X floatatom 159 402 5 0 0 0 - - -;
#X msg 134 372 draw fill;
#X obj 136 222 3drunk;
#X obj 136 203 tgl 15 0 empty empty empty 17 7 0 10 -262144 -1 -1 0
1;
#X obj 119 162 separator;
#X obj 119 271 color 1 1 1;
#X obj 166 519 bng 25 250 50 0 empty empty empty 0 -6 0 8 -262144 -1
-1;
#X obj 293 612 bng 15 250 50 0 empty empty end_reached 20 7 0 10 -262144
-1 -1;
#X obj 166 548 openpanel;
#X msg 166 568 open \$1;
#X obj 228 613 pix_film;
#X msg 269 580 auto \$1;
#X obj 269 562 tgl 15 0 empty empty empty 0 -6 0 8 -262144 -1 -1 1
1;
#X obj 605 422 pix_lumaoffset;
#X floatatom 651 367 5 0 0 2 offset - -;
#X floatatom 698 367 5 0 0 2 gap - -;
#X obj 687 384 tgl 15 0 empty empty empty 0 -6 0 8 -262144 -1 -1 0
1;
#X msg 687 402 smooth \$1;
#X msg 619 401 fill \$1;
#X obj 619 383 tgl 15 0 empty empty empty 0 -6 0 8 -262144 -1 -1 0
1;
#X msg 607 225 0;
#X obj 229 644 pix_texture;
#X obj 232 159 separator;
#X obj 230 184 rotateXYZ 0 0 0;
#X obj 27 138 rotateXYZ 0 0 0;
#X obj 228 676 rectangle 5.36 4.02;
#X connect 0 0 2 0;
#X connect 1 0 3 0;
#X connect 2 0 6 0;
#X connect 4 0 15 1;
#X connect 5 0 15 0;
#X connect 5 0 42 0;
#X connect 5 0 18 0;
#X connect 7 0 6 0;
#X connect 8 0 6 1;
#X connect 9 0 6 0;
#X connect 10 0 0 1;
#X connect 10 1 0 2;
#X connect 10 2 0 3;
#X connect 11 0 10 0;
#X connect 12 0 0 0;
#X connect 12 0 26 0;
#X connect 13 0 46 1;
#X connect 13 1 46 2;
#X connect 13 2 46 3;
#X connect 14 0 13 0;
#X connect 15 0 44 0;
#X connect 15 0 46 0;
#X connect 15 1 16 0;
#X connect 16 0 35 0;
#X connect 17 0 42 0;
#X connect 18 0 4 0;
#X connect 18 0 14 0;
#X connect 18 0 11 0;
#X connect 18 0 25 0;
#X connect 19 0 27 0;
#X connect 21 0 20 0;
#X connect 22 0 20 1;
#X connect 23 0 20 0;
#X connect 24 0 19 1;
#X connect 24 1 19 2;
#X connect 24 2 19 3;
#X connect 25 0 24 0;
#X connect 26 0 19 0;
#X connect 27 0 20 0;
#X connect 28 0 30 0;
#X connect 30 0 31 0;
#X connect 31 0 32 0;
#X connect 32 0 43 0;
#X connect 32 2 29 0;
#X connect 33 0 32 0;
#X connect 34 0 33 0;
#X connect 35 0 1 0;
#X connect 36 0 35 1;
#X connect 37 0 35 2;
#X connect 38 0 39 0;
#X connect 39 0 35 0;
#X connect 40 0 35 0;
#X connect 41 0 40 0;
#X connect 42 0 16 0;
#X connect 43 0 47 0;
#X connect 44 0 45 0;
#X connect 45 0 32 0;
#X connect 46 0 12 0;
