#N canvas 994 96 896 984 10;
#X declare -lib Gem;
#X obj 1196 370 cube;
#X msg 1293 333 draw line;
#X msg 1294 307 draw fill;
#X floatatom 1218 347 5 0 0 0 - - -;
#X obj 1262 140 drunk, f 18;
#X obj 1262 121 tgl 15 0 empty empty empty 17 7 0 10 -262144 -1 -1
0 1;
#X floatatom 1332 121 5 0 0 0 - - -;
#X floatatom 1367 121 5 0 0 0 - - -;
#X floatatom 1262 163 5 0 0 0 - - -;
#X floatatom 1297 120 5 0 0 0 - - -;
#X obj 1218 298 cylinder;
#X msg 1295 282 reset;
#X obj 27 426 rotateXYZ;
#X obj 517 623 pix_texture;
#X obj 27 448 color 1 0 1;
#X obj 110 886 cube;
#X msg 124 835 draw line;
#X obj 574 716 / 100;
#X floatatom 574 695 5 0 0 0 - - -;
#X obj 616 716 / 100;
#X floatatom 616 695 5 0 0 0 - - -;
#X floatatom 573 739 5 0 0 0 - - -;
#X floatatom 620 741 5 0 0 0 - - -;
#X obj 517 759 rectangle 5.36 4.02;
#X floatatom 530 161 5 0 0 0 - - -;
#X obj 517 211 pix_tIIR 2 2;
#X obj 530 181 * 0.01;
#X obj 538 123 unpack 30 60 10 50 50 -20;
#X floatatom 579 161 5 0 0 0 - - -;
#X obj 579 181 * 0.01;
#X floatatom 626 161 5 0 0 0 - - -;
#X obj 626 181 * 0.01;
#X floatatom 675 161 5 0 0 0 - - -;
#X obj 675 181 * 0.01;
#X floatatom 722 161 5 0 0 0 - - -;
#X obj 722 181 * 0.01;
#X floatatom 771 161 5 0 0 0 - - -;
#X obj 771 181 * 0.01;
#X msg 536 76 bang;
#X obj 538 100 pack 30 60 10 50 50 -20;
#X obj 517 332 pix_lumaoffset;
#X floatatom 563 277 5 0 0 2 offset - -;
#X floatatom 610 277 5 0 0 2 gap - -;
#X obj 599 294 tgl 15 0 empty empty empty 0 -6 0 8 -262144 -1 -1 0
1;
#X msg 599 312 smooth \$1;
#X msg 531 311 fill \$1;
#X obj 531 293 tgl 15 0 empty empty empty 0 -6 0 8 -262144 -1 -1 1
1;
#X floatatom 140 891 5 0 0 0 - - -;
#X msg 125 856 draw fill;
#X obj 516 31 tgl 15 0 empty empty empty 17 7 0 10 -262144 -1 -1 1
1;
#X obj 27 33 bng 15 250 50 0 empty empty empty 17 7 0 10 -262144 -1
-1;
#X obj 110 306 separator;
#X obj 110 728 rotateXYZ;
#X obj 27 579 cube;
#X msg 41 528 draw line;
#X floatatom 66 482 5 0 0 0 - - -;
#X msg 42 549 draw fill;
#X obj 44 399 3drunk;
#X obj 44 380 tgl 15 0 empty empty empty 17 7 0 10 -262144 -1 -1 1
1;
#X obj 126 706 3drunk;
#X obj 126 687 tgl 15 0 empty empty empty 17 7 0 10 -262144 -1 -1 0
1;
#X obj 110 750 color 1 1 1;
#X obj 27 302 separator;
#X obj 202 881 cube;
#X msg 216 830 draw line;
#X floatatom 232 884 5 0 0 0 - - -;
#X msg 217 851 draw fill;
#X obj 202 351 separator;
#X obj 202 770 rotateXYZ;
#X obj 218 748 3drunk;
#X obj 218 729 tgl 15 0 empty empty empty 17 7 0 10 -262144 -1 -1 0
1;
#X obj 202 792 color 1 1 1;
#X obj 279 535 cube;
#X msg 293 484 draw line;
#X floatatom 313 535 5 0 0 0 - - -;
#X msg 294 505 draw fill;
#X obj 278 433 rotateXYZ;
#X obj 294 411 3drunk;
#X obj 294 392 tgl 15 0 empty empty empty 17 7 0 10 -262144 -1 -1 1
1;
#X obj 278 455 color 1 1 1;
#X obj 278 357 separator;
#X obj 365 617 cube;
#X msg 379 566 draw line;
#X floatatom 400 614 5 0 0 0 - - -;
#X msg 380 587 draw fill;
#X obj 364 442 rotateXYZ;
#X obj 380 420 3drunk;
#X obj 380 401 tgl 15 0 empty empty empty 17 7 0 10 -262144 -1 -1 1
1;
#X obj 364 464 color 1 1 1;
#X obj 364 359 separator;
#X obj 27 235 rotateXYZ;
#X obj 44 208 3drunk;
#X obj 44 189 tgl 15 0 empty empty empty 17 7 0 10 -262144 -1 -1 1
1;
#N canvas 588 395 800 609 m-onz___vj 0;
#X msg 9 141 create \, 1;
#X obj 9 186 gemwin;
#X obj 359 81 gemhead 5;
#X obj 359 105 world_light;
#X obj 12 263 gemhead 20;
#X obj 12 287 gemframebuffer;
#X obj 12 333 t a a b;
#X obj 12 310 translateXYZ 0 0 -4;
#X obj 93 242 loadbang;
#X obj 6 9 declare -lib Gem;
#X msg 93 262 dimen 1024 768;
#X msg 94 187 reset \, dimen 1024 768 \, create \, 1;
#X msg 91 141 destroy \, 1;
#X obj 12 542 pix_buffer \$0-framebuffer 2;
#X obj 12 357 t a b;
#X msg 44 378 snap;
#X obj 12 426 t a b;
#X msg 192 495 1;
#X obj 12 517 pix_buffer_write \$0-framebuffer;
#X obj 12 402 pix_snap 0 0 1024 768;
#X obj 107 377 outlet;
#X obj 333 140 gemhead 30;
#X obj 333 184 t a b;
#X msg 510 185 1;
#X obj 333 206 pix_buffer_read \$0-framebuffer;
#X obj 333 253 outlet;
#X obj 8 46 inlet;
#X obj 333 7 inlet;
#X obj 64 96 b;
#X msg 92 162 lighting 1;
#X obj 92 117 del 500;
#X obj 11 69 spigot 1;
#X obj 92 58 del 11;
#X msg 91 80 0;
#X connect 0 0 1 0;
#X connect 2 0 3 0;
#X connect 4 0 5 0;
#X connect 5 0 7 0;
#X connect 6 0 14 0;
#X connect 6 1 20 0;
#X connect 7 0 6 0;
#X connect 8 0 10 0;
#X connect 10 0 5 0;
#X connect 11 0 1 0;
#X connect 12 0 1 0;
#X connect 14 0 19 0;
#X connect 14 1 15 0;
#X connect 15 0 19 0;
#X connect 16 0 18 0;
#X connect 16 1 17 0;
#X connect 17 0 18 1;
#X connect 19 0 16 0;
#X connect 21 0 22 0;
#X connect 22 0 24 0;
#X connect 22 1 23 0;
#X connect 23 0 24 1;
#X connect 24 0 25 0;
#X connect 26 0 31 0;
#X connect 27 0 21 0;
#X connect 27 0 4 0;
#X connect 27 0 2 0;
#X connect 28 0 11 0;
#X connect 28 0 30 0;
#X connect 28 0 32 0;
#X connect 29 0 1 0;
#X connect 30 0 29 0;
#X connect 31 0 28 0;
#X connect 32 0 33 0;
#X connect 33 0 31 1;
#X restore 27 51 pd m-onz___vj;
#X f 82;
#X connect 3 0 0 1;
#X connect 4 0 8 0;
#X connect 5 0 4 0;
#X connect 6 0 4 2;
#X connect 7 0 4 3;
#X connect 9 0 4 1;
#X connect 12 0 14 0;
#X connect 13 0 23 0;
#X connect 14 0 53 0;
#X connect 16 0 15 0;
#X connect 17 0 21 0;
#X connect 18 0 17 0;
#X connect 19 0 22 0;
#X connect 20 0 19 0;
#X connect 21 0 23 1;
#X connect 22 0 23 2;
#X connect 24 0 26 0;
#X connect 25 0 40 0;
#X connect 26 0 25 1;
#X connect 27 0 24 0;
#X connect 27 1 28 0;
#X connect 27 2 30 0;
#X connect 27 3 32 0;
#X connect 27 4 34 0;
#X connect 27 5 36 0;
#X connect 28 0 29 0;
#X connect 29 0 25 2;
#X connect 30 0 31 0;
#X connect 31 0 25 3;
#X connect 32 0 33 0;
#X connect 33 0 25 4;
#X connect 34 0 35 0;
#X connect 35 0 25 5;
#X connect 36 0 37 0;
#X connect 37 0 25 6;
#X connect 38 0 39 0;
#X connect 39 0 27 0;
#X connect 40 0 13 0;
#X connect 41 0 40 1;
#X connect 42 0 40 2;
#X connect 43 0 44 0;
#X connect 44 0 40 0;
#X connect 45 0 40 0;
#X connect 46 0 45 0;
#X connect 47 0 15 1;
#X connect 48 0 15 0;
#X connect 49 0 93 1;
#X connect 50 0 93 0;
#X connect 51 0 52 0;
#X connect 52 0 61 0;
#X connect 54 0 53 0;
#X connect 55 0 53 1;
#X connect 56 0 53 0;
#X connect 57 0 12 1;
#X connect 57 1 12 2;
#X connect 57 2 12 3;
#X connect 58 0 57 0;
#X connect 59 0 52 1;
#X connect 59 1 52 2;
#X connect 59 2 52 3;
#X connect 60 0 59 0;
#X connect 61 0 15 0;
#X connect 62 0 12 0;
#X connect 64 0 63 0;
#X connect 65 0 63 1;
#X connect 66 0 63 0;
#X connect 67 0 68 0;
#X connect 68 0 71 0;
#X connect 69 0 68 1;
#X connect 69 1 68 2;
#X connect 69 2 68 3;
#X connect 70 0 69 0;
#X connect 71 0 63 0;
#X connect 73 0 72 0;
#X connect 74 0 72 1;
#X connect 75 0 72 0;
#X connect 76 0 79 0;
#X connect 77 0 76 1;
#X connect 77 1 76 2;
#X connect 77 2 76 3;
#X connect 78 0 77 0;
#X connect 79 0 72 0;
#X connect 80 0 76 0;
#X connect 82 0 81 0;
#X connect 83 0 81 1;
#X connect 84 0 81 0;
#X connect 85 0 88 0;
#X connect 86 0 85 1;
#X connect 86 1 85 2;
#X connect 86 2 85 3;
#X connect 87 0 86 0;
#X connect 88 0 81 0;
#X connect 89 0 85 0;
#X connect 90 0 62 0;
#X connect 90 0 51 0;
#X connect 90 0 67 0;
#X connect 90 0 80 0;
#X connect 90 0 89 0;
#X connect 91 0 90 1;
#X connect 91 1 90 2;
#X connect 91 2 90 3;
#X connect 92 0 91 0;
#X connect 93 0 90 0;
#X connect 93 1 40 0;
