#N canvas 74 214 1062 799 10;
#X declare -lib Gem;
#X obj 5 5 declare -lib Gem;
#X obj 6 56 gemwin;
#X msg 6 34 create \, 1;
#X obj 217 32 gemhead 20;
#X obj 219 94 gemframebuffer;
#X obj 486 478 cube 1.4;
#X msg 63 164 draw line;
#X msg 63 183 draw point;
#X floatatom 234 355 5 0 0 0 - - -;
#X text 234 339 size;
#X obj 150 652 mesh_square 3 3;
#X msg 63 145 draw default;
#X msg 65 260 grid \$1;
#X floatatom 65 242 5 0 0 0 - - -;
#X floatatom 70 284 5 0 0 0 - - -;
#X msg 70 302 gridX \$1;
#X floatatom 139 284 5 0 0 0 - - -;
#X msg 139 302 gridY \$1;
#X obj 65 329 t a;
#X obj 63 204 t a;
#X floatatom 533 445 5 0 0 0 - - -;
#X floatatom 465 283 5 0 0 0 - - -;
#X floatatom 484 312 5 0 0 0 - - -;
#X floatatom 521 279 5 0 0 0 - - -;
#X obj 442 353 rotateXYZ;
#X obj 364 37 gemhead 50;
#X obj 635 288 pix_texture;
#X msg 21 98 destroy \, 1;
#X msg 128 11 reset \, dimen 1024 768 \, create \, 1;
#X msg 155 177 draw line;
#X msg 155 198 draw fill;
#X msg 155 220 draw point;
#X floatatom 241 190 5 0 0 2 width - -;
#X floatatom 259 221 5 0 0 2 height - -;
#X obj 198 251 rectangle 3 1;
#X obj 207 123 translateXYZ 0 0 -3;
#X obj 126 471 cnv 15 160 60 empty empty empty 20 12 0 14 -24198 -66577
0;
#X floatatom 155 475 3 0 1 0 - - -;
#X floatatom 184 475 3 0 1 0 - - -;
#X floatatom 212 475 3 0 1 0 - - -;
#X floatatom 241 475 3 0 1 0 - - -;
#X obj 159 509 colorRGB 0 1 0;
#X obj 633 49 hsl 128 15 0.1 1 1 0 empty empty empty -2 -8 0 10 -228856
-1 -1 0 1;
#X obj 630 75 nbx 4 14 -1e+37 1e+37 0 0 empty empty empty 0 -8 0 10
-228856 -1 -1 0 256;
#X text 657 49 rate in Hz;
#X msg 691 74 0;
#X obj 639 126 vsl 22 80 0 127 0 0 dsfsdgs sddfjhgj empty 0 -9 0 10
-228856 -1 -1 6385 1;
#X text 719 72 <= phase reset;
#X obj 639 99 else/lfo 0.25 -tri;
#X floatatom 533 138 5 0 0 0 - - -;
#X obj 533 160 / 100;
#X floatatom 533 183 5 0 0 0 - - -;
#X obj 527 70 else/drunkard;
#X obj 556 23 metro 11;
#X obj 530 12 tgl 15 0 empty empty empty 17 7 0 10 -262144 -1 -1 0
1;
#X obj 358 546 scale 14;
#X obj 479 626 model ./models/SignalTower.obj;
#X floatatom 419 512 5 0 0 0 - - -;
#X obj 58 488 world_light;
#X obj 755 370 pix_snap;
#X obj 743 414 pix_separator;
#X connect 2 0 1 0;
#X connect 3 0 4 0;
#X connect 3 0 58 0;
#X connect 4 0 35 0;
#X connect 4 1 26 1;
#X connect 6 0 19 0;
#X connect 7 0 19 0;
#X connect 8 0 10 1;
#X connect 11 0 19 0;
#X connect 12 0 18 0;
#X connect 13 0 12 0;
#X connect 14 0 15 0;
#X connect 15 0 18 0;
#X connect 16 0 17 0;
#X connect 17 0 18 0;
#X connect 18 0 10 0;
#X connect 19 0 10 0;
#X connect 20 0 5 1;
#X connect 21 0 24 1;
#X connect 22 0 24 2;
#X connect 23 0 24 3;
#X connect 24 0 5 0;
#X connect 25 0 26 0;
#X connect 26 0 24 0;
#X connect 27 0 1 0;
#X connect 28 0 1 0;
#X connect 29 0 34 0;
#X connect 30 0 34 0;
#X connect 31 0 34 0;
#X connect 32 0 34 1;
#X connect 33 0 34 2;
#X connect 35 0 41 0;
#X connect 37 0 41 1;
#X connect 38 0 41 2;
#X connect 39 0 41 3;
#X connect 40 0 41 4;
#X connect 41 0 10 0;
#X connect 42 0 43 0;
#X connect 43 0 48 0;
#X connect 45 0 48 1;
#X connect 48 0 46 0;
#X connect 48 0 49 0;
#X connect 49 0 50 0;
#X connect 50 0 51 0;
#X connect 51 0 37 0;
#X connect 52 0 16 0;
#X connect 53 0 52 0;
#X connect 54 0 53 0;
#X connect 57 0 55 1;
