#N canvas 945 125 806 710 10;
#X obj 12 40 gemwin;
#X msg 11 15 dimen 1024 768 \, create \, 1;
#X obj 104 66 gemhead;
#X obj 9 75 bng 25 250 50 0 empty empty empty 0 -6 0 8 -262144 -1 -1
;
#X obj 73 210 bng 15 250 50 0 empty empty end_reached 20 7 0 10 -262144
-1 -1;
#X obj 9 104 openpanel;
#X msg 9 124 open \$1;
#X obj 443 179 rectangle 4 3;
#X obj 8 211 pix_film;
#X msg 49 178 auto \$1;
#X obj 49 160 tgl 15 0 empty empty empty 0 -6 0 8 -262144 -1 -1 1 1
;
#X obj 430 447 pix_lumaoffset;
#X floatatom 476 392 5 0 0 2 offset - -;
#X floatatom 523 392 5 0 0 2 gap - -;
#X obj 512 409 tgl 15 0 empty empty empty 0 -6 0 8 -262144 -1 -1 0
1;
#X msg 512 427 smooth \$1;
#X msg 444 426 fill \$1;
#X obj 444 408 tgl 15 0 empty empty empty 0 -6 0 8 -262144 -1 -1 1
1;
#X obj 544 44 gemhead 20;
#X obj 546 66 gemframebuffer;
#X obj 448 146 pix_texture;
#X obj 545 122 circle 2;
#X obj 546 97 translateXYZ 0 0 -3;
#X obj 108 317 cnv 15 160 100 empty empty empty 20 12 0 14 -24198 -66577
0;
#X obj 133 333 hsl 128 15 0 1 0 1 empty empty empty -2 -6 0 8 -262144
-1 -1 0 1;
#X floatatom 130 358 5 0 0 0 - - -;
#X msg 187 357 0.7 0.7;
#X obj 68 451 pix_mix 0;
#X obj 71 555 rectangle 4 3;
#X obj 72 516 pix_texture;
#X obj 215 84 bng 25 250 50 0 empty empty empty 0 -6 0 8 -262144 -1
-1;
#X obj 279 219 bng 15 250 50 0 empty empty end_reached 20 7 0 10 -262144
-1 -1;
#X obj 215 113 openpanel;
#X msg 215 133 open \$1;
#X obj 214 220 pix_film;
#X msg 255 187 auto \$1;
#X obj 255 169 tgl 15 0 empty empty empty 0 -6 0 8 -262144 -1 -1 1
1;
#X obj 434 477 pix_2grey;
#X floatatom 331 559 3 0 1 2 fb0 - -;
#X floatatom 355 559 3 0 1 2 fb1 - -;
#X floatatom 379 559 3 0 1 2 fb2 - -;
#X floatatom 408 559 3 0 1 2 ff1 - -;
#X floatatom 432 559 3 0 1 2 ff2 - -;
#N canvas 0 0 450 300 init 0;
#X msg 175 214 0.3;
#X msg 247 215 0.6;
#X obj 104 258 outlet;
#X obj 154 258 outlet;
#X obj 204 258 outlet;
#X obj 254 258 outlet;
#X obj 304 258 outlet;
#X obj 244 59 inlet;
#X obj 388 158 t b;
#X msg 378 201 1;
#X msg 413 201 0;
#X obj 246 88 route 1;
#X msg 104 214 0.2;
#X msg 140 215 0.5;
#X obj 353 258 outlet;
#X msg 277 215 0.2;
#X msg 312 213 0.2;
#X obj 238 127 t b;
#X obj 193 105 t b b;
#X obj 277 115 t b b;
#X msg 277 135 1;
#X connect 0 0 4 0;
#X connect 1 0 5 0;
#X connect 7 0 11 0;
#X connect 8 0 9 0;
#X connect 8 0 10 0;
#X connect 9 0 5 0;
#X connect 10 0 3 0;
#X connect 10 0 4 0;
#X connect 10 0 6 0;
#X connect 10 0 14 0;
#X connect 11 0 18 0;
#X connect 11 1 19 0;
#X connect 12 0 2 0;
#X connect 13 0 3 0;
#X connect 15 0 6 0;
#X connect 16 0 14 0;
#X connect 17 0 13 0;
#X connect 17 0 0 0;
#X connect 17 0 1 0;
#X connect 17 0 15 0;
#X connect 17 0 16 0;
#X connect 18 0 12 0;
#X connect 18 1 17 0;
#X connect 19 0 20 0;
#X connect 19 1 8 0;
#X connect 20 0 2 0;
#X restore 479 542 pd init;
#X obj 479 525 tgl 15 0 empty empty empty 0 -6 0 8 -262144 -1 -1 1
1;
#X msg 408 606 set;
#X obj 325 626 pix_biquad;
#X floatatom 456 559 3 0 1 2 ff3 - -;
#X obj 331 577 pack 1 0 0 1 0 0;
#X obj 540 264 cnv 15 160 60 empty empty empty 20 12 0 14 -24198 -66577
0;
#X floatatom 633 267 5 0 100 0 blur - -;
#X obj 540 303 pix_motionblur;
#X obj 633 284 / 100;
#X obj 544 561 cnv 15 160 60 empty empty empty 20 12 0 14 -24198 -66577
0;
#X obj 545 599 pix_colorreduce;
#X floatatom 558 581 5 0 255 2 number - -;
#X floatatom 610 581 5 0 1 2 persist - -;
#X obj 663 579 tgl 15 0 empty empty smooth 0 -6 0 8 -262144 -1 -1 1
1;
#X obj 326 280 cnv 15 160 80 empty empty empty 20 12 0 14 -24198 -66577
0;
#X obj 327 338 pix_contrast;
#X floatatom 366 290 5 0 10 1 contrast - -;
#X floatatom 406 317 5 0 0 0 saturation - -;
#X obj 218 382 cnv 15 160 150 empty empty empty 20 12 0 14 -24198 -66577
0;
#X obj 257 427 cnv 15 100 40 empty empty empty 20 12 0 14 -233017 -66577
0;
#X floatatom 273 426 3 -1 2 0 - - -;
#X floatatom 296 426 3 -1 2 0 - - -;
#X floatatom 319 426 3 -1 2 0 - - -;
#X floatatom 273 440 3 -1 2 0 - - -;
#X floatatom 296 440 3 -1 2 0 - - -;
#X floatatom 319 440 3 -1 2 0 - - -;
#X floatatom 273 454 3 -1 2 0 - - -;
#X floatatom 296 454 3 -1 2 0 - - -;
#X floatatom 319 454 3 -1 2 0 - - -;
#N canvas 0 0 450 469 pack 0;
#X obj 69 169 pack 0 0 0 0 0 0 0 0 0;
#X obj 69 139 t b f;
#X obj 106 139 t b f;
#X obj 143 139 t b f;
#X obj 180 139 t b f;
#X obj 217 139 t b f;
#X obj 254 139 t b f;
#X obj 291 139 t b f;
#X obj 328 139 t b f;
#X obj 32 111 inlet;
#X obj 69 111 inlet;
#X obj 106 111 inlet;
#X obj 143 111 inlet;
#X obj 180 111 inlet;
#X obj 217 111 inlet;
#X obj 254 111 inlet;
#X obj 291 111 inlet;
#X obj 328 111 inlet;
#X obj 61 349 outlet;
#X obj 274 355 outlet;
#X obj 71 190 t l l;
#X obj 257 232 unpack 0 0 0 0 0 0 0 0 0;
#X obj 399 256 +;
#X obj 358 256 +;
#X obj 318 256 +;
#X obj 277 256 +;
#X obj 379 286 +;
#X obj 298 286 +;
#X obj 349 316 +;
#X obj 268 316 +;
#X obj 58 294 select 0;
#X msg 48 323 1;
#X obj 132 391 /;
#X msg 132 365 1 \$1;
#X connect 0 0 20 0;
#X connect 1 0 0 0;
#X connect 1 1 0 1;
#X connect 2 0 0 0;
#X connect 2 1 0 2;
#X connect 3 0 0 0;
#X connect 3 1 0 3;
#X connect 4 0 0 0;
#X connect 4 1 0 4;
#X connect 5 0 0 0;
#X connect 5 1 0 5;
#X connect 6 0 0 0;
#X connect 6 1 0 6;
#X connect 7 0 0 0;
#X connect 7 1 0 7;
#X connect 8 0 0 0;
#X connect 8 1 0 8;
#X connect 9 0 0 0;
#X connect 10 0 1 0;
#X connect 11 0 2 0;
#X connect 12 0 3 0;
#X connect 13 0 4 0;
#X connect 14 0 5 0;
#X connect 15 0 6 0;
#X connect 16 0 7 0;
#X connect 17 0 8 0;
#X connect 20 0 21 0;
#X connect 20 1 19 0;
#X connect 21 0 29 0;
#X connect 21 1 25 0;
#X connect 21 2 25 1;
#X connect 21 3 24 0;
#X connect 21 4 24 1;
#X connect 21 5 23 0;
#X connect 21 6 23 1;
#X connect 21 7 22 0;
#X connect 21 8 22 1;
#X connect 22 0 26 1;
#X connect 23 0 26 0;
#X connect 24 0 27 1;
#X connect 25 0 27 0;
#X connect 26 0 28 1;
#X connect 27 0 28 0;
#X connect 28 0 29 1;
#X connect 29 0 30 0;
#X connect 30 0 31 0;
#X connect 30 1 33 0;
#X connect 31 0 18 0;
#X connect 32 0 18 0;
#X connect 33 0 32 0;
#X restore 252 468 pd pack 9 . . .;
#X obj 219 510 pix_convolve 3 3;
#X floatatom 252 493 5 0 0 1 scale - -;
#N canvas 411 476 605 305 unpack 0;
#X obj 60 270 outlet;
#X obj 111 270 outlet;
#X obj 164 270 outlet;
#X obj 215 270 outlet;
#X obj 266 270 outlet;
#X obj 317 270 outlet;
#X obj 370 270 outlet;
#X obj 421 270 outlet;
#X obj 471 271 outlet;
#X obj 179 173 unpack 0 0 0 0 0 0 0 0 0;
#X obj 130 13 inlet;
#X obj 130 40 route edge1 edge2 smooth none;
#X msg 130 124 -1 -1 -1 -1 8 -1 -1 -1 -1;
#X msg 179 102 -1 -4 -1 -4 20 -4 -1 -4 -1;
#X msg 229 82 1 2 1 2 4 2 1 2 1;
#X msg 278 62 0 0 0 0 1 0 0 0 0;
#X connect 9 0 0 0;
#X connect 9 1 1 0;
#X connect 9 2 2 0;
#X connect 9 3 3 0;
#X connect 9 4 4 0;
#X connect 9 5 5 0;
#X connect 9 6 6 0;
#X connect 9 7 7 0;
#X connect 9 8 8 0;
#X connect 10 0 11 0;
#X connect 11 0 12 0;
#X connect 11 1 13 0;
#X connect 11 2 14 0;
#X connect 11 3 15 0;
#X connect 12 0 9 0;
#X connect 13 0 9 0;
#X connect 14 0 9 0;
#X connect 15 0 9 0;
#X restore 241 409 pd unpack 9 . . .;
#X msg 227 386 none;
#X msg 308 386 edge1;
#X msg 350 386 edge2;
#X msg 261 386 smooth;
#X obj 451 198 cnv 15 160 60 empty empty empty 20 12 0 14 -24198 -66577
0;
#X obj 451 232 pix_delay 100;
#X floatatom 537 213 5 0 0 0 - - -;
#X text 528 198 scrub me!;
#X obj 72 261 cnv 15 160 40 empty empty empty 20 12 0 14 -24198 -66577
0;
#X obj 72 272 pix_mask;
#X connect 1 0 0 0;
#X connect 2 0 8 0;
#X connect 2 0 34 0;
#X connect 3 0 5 0;
#X connect 5 0 6 0;
#X connect 6 0 8 0;
#X connect 8 0 86 1;
#X connect 8 2 4 0;
#X connect 9 0 8 0;
#X connect 10 0 9 0;
#X connect 12 0 11 1;
#X connect 13 0 11 2;
#X connect 14 0 15 0;
#X connect 15 0 11 0;
#X connect 16 0 11 0;
#X connect 17 0 16 0;
#X connect 18 0 19 0;
#X connect 19 0 22 0;
#X connect 19 1 20 1;
#X connect 20 0 7 0;
#X connect 22 0 21 0;
#X connect 24 0 25 0;
#X connect 25 0 27 2;
#X connect 26 0 27 2;
#X connect 27 0 59 0;
#X connect 29 0 28 0;
#X connect 30 0 32 0;
#X connect 32 0 33 0;
#X connect 33 0 34 0;
#X connect 34 0 86 0;
#X connect 34 2 31 0;
#X connect 35 0 34 0;
#X connect 36 0 35 0;
#X connect 38 0 48 0;
#X connect 39 0 48 1;
#X connect 40 0 48 2;
#X connect 41 0 48 3;
#X connect 42 0 48 4;
#X connect 43 0 38 0;
#X connect 43 1 39 0;
#X connect 43 2 40 0;
#X connect 43 3 41 0;
#X connect 43 4 42 0;
#X connect 43 5 47 0;
#X connect 44 0 43 0;
#X connect 45 0 46 0;
#X connect 47 0 48 5;
#X connect 48 0 46 0;
#X connect 50 0 52 0;
#X connect 51 0 54 0;
#X connect 52 0 51 1;
#X connect 55 0 54 1;
#X connect 56 0 54 2;
#X connect 57 0 54 3;
#X connect 59 0 74 0;
#X connect 60 0 59 1;
#X connect 61 0 59 2;
#X connect 64 0 73 0;
#X connect 65 0 73 1;
#X connect 66 0 73 2;
#X connect 67 0 73 3;
#X connect 68 0 73 4;
#X connect 69 0 73 5;
#X connect 70 0 73 6;
#X connect 71 0 73 7;
#X connect 72 0 73 8;
#X connect 73 0 75 0;
#X connect 73 1 74 2;
#X connect 74 0 82 0;
#X connect 75 0 74 1;
#X connect 76 0 64 0;
#X connect 76 1 65 0;
#X connect 76 2 66 0;
#X connect 76 3 67 0;
#X connect 76 4 68 0;
#X connect 76 5 69 0;
#X connect 76 6 70 0;
#X connect 76 7 71 0;
#X connect 76 8 72 0;
#X connect 77 0 76 0;
#X connect 78 0 76 0;
#X connect 79 0 76 0;
#X connect 80 0 76 0;
#X connect 82 0 29 0;
#X connect 83 0 82 1;
#X connect 86 0 27 0;
